<svg width="64" height="78" viewBox="0 0 64 78" fill="none" xmlns="http://www.w3.org/2000/svg">
    <path d="M0 0H64V78L32 65L0 78V0Z" fill="#002D6D"/>
    <path d="M44.25 31.1562C44.25 38.8125 32.898 45.0097 32.4145 45.2656C32.2871 45.3342 32.1447 45.37 32 45.37C31.8553 45.37 31.7129 45.3342 31.5855 45.2656C31.102 45.0097 19.75 38.8125 19.75 31.1562C19.752 29.3584 20.4671 27.6347 21.7384 26.3634C23.0097 25.0921 24.7334 24.377 26.5312 24.375C28.7898 24.375 30.7673 25.3462 32 26.988C33.2327 25.3462 35.2102 24.375 37.4688 24.375C39.2666 24.377 40.9903 25.0921 42.2616 26.3634C43.5329 27.6347 44.248 29.3584 44.25 31.1562Z" fill="white"/>
</svg>